<mxfile host="app.diagrams.net" modified="2024-07-09T06:01:21.791Z" agent="Mozilla/5.0 (Windows NT 10.0; Win64; x64) AppleWebKit/537.36 (KHTML, like Gecko) Chrome/117.0.0.0 Safari/537.36" etag="eHRUeKovq55V5ZBfyAga" version="24.6.4" type="github">
  <diagram id="C5RBs43oDa-KdzZeNtuy" name="Page-1">
    <mxGraphModel dx="4014" dy="1684" grid="1" gridSize="10" guides="1" tooltips="1" connect="1" arrows="1" fold="1" page="1" pageScale="1" pageWidth="827" pageHeight="1169" math="0" shadow="0">
      <root>
        <mxCell id="WIyWlLk6GJQsqaUBKTNV-0" />
        <mxCell id="WIyWlLk6GJQsqaUBKTNV-1" parent="WIyWlLk6GJQsqaUBKTNV-0" />
        <mxCell id="WIyWlLk6GJQsqaUBKTNV-4" value="Yes" style="rounded=0;html=1;jettySize=auto;orthogonalLoop=1;fontSize=11;endArrow=block;endFill=0;endSize=8;strokeWidth=1;shadow=0;labelBackgroundColor=none;edgeStyle=orthogonalEdgeStyle;" parent="WIyWlLk6GJQsqaUBKTNV-1" source="WIyWlLk6GJQsqaUBKTNV-6" edge="1">
          <mxGeometry x="-0.2083" y="20" relative="1" as="geometry">
            <mxPoint as="offset" />
            <mxPoint x="220" y="210" as="targetPoint" />
          </mxGeometry>
        </mxCell>
        <mxCell id="WIyWlLk6GJQsqaUBKTNV-5" value="No" style="edgeStyle=orthogonalEdgeStyle;rounded=0;html=1;jettySize=auto;orthogonalLoop=1;fontSize=11;endArrow=block;endFill=0;endSize=8;strokeWidth=1;shadow=0;labelBackgroundColor=none;" parent="WIyWlLk6GJQsqaUBKTNV-1" source="WIyWlLk6GJQsqaUBKTNV-6" target="WIyWlLk6GJQsqaUBKTNV-7" edge="1">
          <mxGeometry y="10" relative="1" as="geometry">
            <mxPoint as="offset" />
          </mxGeometry>
        </mxCell>
        <mxCell id="WIyWlLk6GJQsqaUBKTNV-6" value="&lt;font style=&quot;font-size: 9px;&quot;&gt;Already Have an Account??&lt;/font&gt;" style="rhombus;whiteSpace=wrap;html=1;shadow=0;fontFamily=Helvetica;fontSize=12;align=center;strokeWidth=1;spacing=6;spacingTop=-4;" parent="WIyWlLk6GJQsqaUBKTNV-1" vertex="1">
          <mxGeometry x="170" y="80" width="100" height="80" as="geometry" />
        </mxCell>
        <mxCell id="WIyWlLk6GJQsqaUBKTNV-7" value="Create an Account" style="rounded=1;whiteSpace=wrap;html=1;fontSize=12;glass=0;strokeWidth=1;shadow=0;" parent="WIyWlLk6GJQsqaUBKTNV-1" vertex="1">
          <mxGeometry x="320" y="100" width="120" height="40" as="geometry" />
        </mxCell>
        <mxCell id="RpZ9VH3zkLeXyJTN4Uy3-1" value="Start" style="ellipse;whiteSpace=wrap;html=1;" vertex="1" parent="WIyWlLk6GJQsqaUBKTNV-1">
          <mxGeometry x="185" width="70" height="30" as="geometry" />
        </mxCell>
        <mxCell id="RpZ9VH3zkLeXyJTN4Uy3-3" value="" style="rounded=0;html=1;jettySize=auto;orthogonalLoop=1;fontSize=11;endArrow=block;endFill=0;endSize=8;strokeWidth=1;shadow=0;labelBackgroundColor=none;edgeStyle=orthogonalEdgeStyle;" edge="1" parent="WIyWlLk6GJQsqaUBKTNV-1">
          <mxGeometry relative="1" as="geometry">
            <mxPoint x="219.76" y="30" as="sourcePoint" />
            <mxPoint x="219.76" y="80" as="targetPoint" />
          </mxGeometry>
        </mxCell>
        <mxCell id="RpZ9VH3zkLeXyJTN4Uy3-5" value="Login" style="rounded=1;whiteSpace=wrap;html=1;fontSize=12;glass=0;strokeWidth=1;shadow=0;" vertex="1" parent="WIyWlLk6GJQsqaUBKTNV-1">
          <mxGeometry x="160" y="210" width="120" height="40" as="geometry" />
        </mxCell>
        <mxCell id="RpZ9VH3zkLeXyJTN4Uy3-6" value="Yes" style="rounded=0;html=1;jettySize=auto;orthogonalLoop=1;fontSize=11;endArrow=block;endFill=0;endSize=8;strokeWidth=1;shadow=0;labelBackgroundColor=none;edgeStyle=orthogonalEdgeStyle;" edge="1" parent="WIyWlLk6GJQsqaUBKTNV-1">
          <mxGeometry x="-0.2083" y="20" relative="1" as="geometry">
            <mxPoint as="offset" />
            <mxPoint x="219.76" y="250" as="sourcePoint" />
            <mxPoint x="219.76" y="300" as="targetPoint" />
          </mxGeometry>
        </mxCell>
        <mxCell id="RpZ9VH3zkLeXyJTN4Uy3-7" value="Enter Credentials" style="rounded=1;whiteSpace=wrap;html=1;fontSize=12;glass=0;strokeWidth=1;shadow=0;" vertex="1" parent="WIyWlLk6GJQsqaUBKTNV-1">
          <mxGeometry x="160" y="300" width="120" height="40" as="geometry" />
        </mxCell>
        <mxCell id="RpZ9VH3zkLeXyJTN4Uy3-8" value="Yes" style="rounded=0;html=1;jettySize=auto;orthogonalLoop=1;fontSize=11;endArrow=block;endFill=0;endSize=8;strokeWidth=1;shadow=0;labelBackgroundColor=none;edgeStyle=orthogonalEdgeStyle;" edge="1" parent="WIyWlLk6GJQsqaUBKTNV-1">
          <mxGeometry x="-0.2083" y="20" relative="1" as="geometry">
            <mxPoint as="offset" />
            <mxPoint x="219.76" y="340" as="sourcePoint" />
            <mxPoint x="219.76" y="390" as="targetPoint" />
          </mxGeometry>
        </mxCell>
        <mxCell id="RpZ9VH3zkLeXyJTN4Uy3-9" value="Valid Credentials?" style="rhombus;whiteSpace=wrap;html=1;shadow=0;fontFamily=Helvetica;fontSize=12;align=center;strokeWidth=1;spacing=6;spacingTop=-4;" vertex="1" parent="WIyWlLk6GJQsqaUBKTNV-1">
          <mxGeometry x="170" y="390" width="100" height="80" as="geometry" />
        </mxCell>
        <mxCell id="RpZ9VH3zkLeXyJTN4Uy3-10" value="No" style="rounded=0;html=1;jettySize=auto;orthogonalLoop=1;fontSize=11;endArrow=block;endFill=0;endSize=8;strokeWidth=1;shadow=0;labelBackgroundColor=none;edgeStyle=orthogonalEdgeStyle;entryX=1;entryY=0.5;entryDx=0;entryDy=0;" edge="1" parent="WIyWlLk6GJQsqaUBKTNV-1" target="RpZ9VH3zkLeXyJTN4Uy3-7">
          <mxGeometry x="-0.2083" y="20" relative="1" as="geometry">
            <mxPoint as="offset" />
            <mxPoint x="270" y="430" as="sourcePoint" />
            <mxPoint x="270" y="480" as="targetPoint" />
          </mxGeometry>
        </mxCell>
        <mxCell id="RpZ9VH3zkLeXyJTN4Uy3-11" value="Yes" style="rounded=0;html=1;jettySize=auto;orthogonalLoop=1;fontSize=11;endArrow=block;endFill=0;endSize=8;strokeWidth=1;shadow=0;labelBackgroundColor=none;edgeStyle=orthogonalEdgeStyle;" edge="1" parent="WIyWlLk6GJQsqaUBKTNV-1">
          <mxGeometry x="-0.2083" y="20" relative="1" as="geometry">
            <mxPoint as="offset" />
            <mxPoint x="219.76" y="470" as="sourcePoint" />
            <mxPoint x="219.76" y="520" as="targetPoint" />
          </mxGeometry>
        </mxCell>
        <mxCell id="RpZ9VH3zkLeXyJTN4Uy3-14" value="Header" style="rounded=1;whiteSpace=wrap;html=1;fontSize=12;glass=0;strokeWidth=1;shadow=0;" vertex="1" parent="WIyWlLk6GJQsqaUBKTNV-1">
          <mxGeometry x="160" y="520" width="120" height="40" as="geometry" />
        </mxCell>
        <mxCell id="RpZ9VH3zkLeXyJTN4Uy3-18" value="No" style="edgeStyle=orthogonalEdgeStyle;rounded=0;html=1;jettySize=auto;orthogonalLoop=1;fontSize=11;endArrow=block;endFill=0;endSize=8;strokeWidth=1;shadow=0;labelBackgroundColor=none;" edge="1" parent="WIyWlLk6GJQsqaUBKTNV-1" source="WIyWlLk6GJQsqaUBKTNV-6" target="WIyWlLk6GJQsqaUBKTNV-7">
          <mxGeometry y="10" relative="1" as="geometry">
            <mxPoint as="offset" />
            <mxPoint x="270" y="120" as="sourcePoint" />
            <mxPoint x="320" y="120" as="targetPoint" />
            <Array as="points">
              <mxPoint x="404" y="120" />
            </Array>
          </mxGeometry>
        </mxCell>
        <mxCell id="RpZ9VH3zkLeXyJTN4Uy3-19" value="No" style="edgeStyle=orthogonalEdgeStyle;rounded=0;html=1;jettySize=auto;orthogonalLoop=1;fontSize=11;endArrow=block;endFill=0;endSize=8;strokeWidth=1;shadow=0;labelBackgroundColor=none;" edge="1" parent="WIyWlLk6GJQsqaUBKTNV-1" source="WIyWlLk6GJQsqaUBKTNV-6" target="WIyWlLk6GJQsqaUBKTNV-7">
          <mxGeometry y="10" relative="1" as="geometry">
            <mxPoint as="offset" />
            <mxPoint x="270" y="120" as="sourcePoint" />
            <mxPoint x="320" y="120" as="targetPoint" />
            <Array as="points">
              <mxPoint x="360" y="120" />
            </Array>
          </mxGeometry>
        </mxCell>
        <mxCell id="RpZ9VH3zkLeXyJTN4Uy3-22" value="" style="rounded=0;html=1;jettySize=auto;orthogonalLoop=1;fontSize=11;endArrow=block;endFill=0;endSize=8;strokeWidth=1;shadow=0;labelBackgroundColor=none;edgeStyle=orthogonalEdgeStyle;entryX=1;entryY=0.5;entryDx=0;entryDy=0;" edge="1" parent="WIyWlLk6GJQsqaUBKTNV-1" target="RpZ9VH3zkLeXyJTN4Uy3-5">
          <mxGeometry x="-0.2083" y="20" relative="1" as="geometry">
            <mxPoint as="offset" />
            <mxPoint x="379.71000000000004" y="140" as="sourcePoint" />
            <mxPoint x="379.71000000000004" y="190" as="targetPoint" />
            <Array as="points">
              <mxPoint x="380" y="230" />
            </Array>
          </mxGeometry>
        </mxCell>
        <mxCell id="RpZ9VH3zkLeXyJTN4Uy3-38" style="edgeStyle=orthogonalEdgeStyle;rounded=0;orthogonalLoop=1;jettySize=auto;html=1;" edge="1" parent="WIyWlLk6GJQsqaUBKTNV-1" source="RpZ9VH3zkLeXyJTN4Uy3-23" target="RpZ9VH3zkLeXyJTN4Uy3-37">
          <mxGeometry relative="1" as="geometry" />
        </mxCell>
        <mxCell id="RpZ9VH3zkLeXyJTN4Uy3-23" value="Home" style="rounded=1;whiteSpace=wrap;html=1;fontSize=12;glass=0;strokeWidth=1;shadow=0;" vertex="1" parent="WIyWlLk6GJQsqaUBKTNV-1">
          <mxGeometry x="-240" y="670" width="120" height="40" as="geometry" />
        </mxCell>
        <mxCell id="RpZ9VH3zkLeXyJTN4Uy3-24" value="" style="rounded=0;html=1;jettySize=auto;orthogonalLoop=1;fontSize=11;endArrow=block;endFill=0;endSize=8;strokeWidth=1;shadow=0;labelBackgroundColor=none;edgeStyle=orthogonalEdgeStyle;exitX=0;exitY=0.5;exitDx=0;exitDy=0;" edge="1" parent="WIyWlLk6GJQsqaUBKTNV-1" source="RpZ9VH3zkLeXyJTN4Uy3-14" target="RpZ9VH3zkLeXyJTN4Uy3-23">
          <mxGeometry x="-0.2083" y="20" relative="1" as="geometry">
            <mxPoint as="offset" />
            <mxPoint x="-40" y="540" as="sourcePoint" />
            <mxPoint x="219.57999999999998" y="610" as="targetPoint" />
          </mxGeometry>
        </mxCell>
        <mxCell id="RpZ9VH3zkLeXyJTN4Uy3-51" style="edgeStyle=orthogonalEdgeStyle;rounded=0;orthogonalLoop=1;jettySize=auto;html=1;" edge="1" parent="WIyWlLk6GJQsqaUBKTNV-1" source="RpZ9VH3zkLeXyJTN4Uy3-25" target="RpZ9VH3zkLeXyJTN4Uy3-50">
          <mxGeometry relative="1" as="geometry" />
        </mxCell>
        <mxCell id="RpZ9VH3zkLeXyJTN4Uy3-25" value="Clients" style="rounded=1;whiteSpace=wrap;html=1;fontSize=12;glass=0;strokeWidth=1;shadow=0;" vertex="1" parent="WIyWlLk6GJQsqaUBKTNV-1">
          <mxGeometry x="160" y="670" width="120" height="40" as="geometry" />
        </mxCell>
        <mxCell id="RpZ9VH3zkLeXyJTN4Uy3-55" style="edgeStyle=orthogonalEdgeStyle;rounded=0;orthogonalLoop=1;jettySize=auto;html=1;" edge="1" parent="WIyWlLk6GJQsqaUBKTNV-1" source="RpZ9VH3zkLeXyJTN4Uy3-26" target="RpZ9VH3zkLeXyJTN4Uy3-54">
          <mxGeometry relative="1" as="geometry" />
        </mxCell>
        <mxCell id="RpZ9VH3zkLeXyJTN4Uy3-26" value="Patient Requests" style="rounded=1;whiteSpace=wrap;html=1;fontSize=12;glass=0;strokeWidth=1;shadow=0;" vertex="1" parent="WIyWlLk6GJQsqaUBKTNV-1">
          <mxGeometry x="360" y="670" width="120" height="40" as="geometry" />
        </mxCell>
        <mxCell id="RpZ9VH3zkLeXyJTN4Uy3-62" style="edgeStyle=orthogonalEdgeStyle;rounded=0;orthogonalLoop=1;jettySize=auto;html=1;" edge="1" parent="WIyWlLk6GJQsqaUBKTNV-1" source="RpZ9VH3zkLeXyJTN4Uy3-27" target="RpZ9VH3zkLeXyJTN4Uy3-60">
          <mxGeometry relative="1" as="geometry" />
        </mxCell>
        <mxCell id="RpZ9VH3zkLeXyJTN4Uy3-27" value="Profile" style="rounded=1;whiteSpace=wrap;html=1;fontSize=12;glass=0;strokeWidth=1;shadow=0;" vertex="1" parent="WIyWlLk6GJQsqaUBKTNV-1">
          <mxGeometry x="560" y="670" width="120" height="40" as="geometry" />
        </mxCell>
        <mxCell id="RpZ9VH3zkLeXyJTN4Uy3-49" style="edgeStyle=orthogonalEdgeStyle;rounded=0;orthogonalLoop=1;jettySize=auto;html=1;" edge="1" parent="WIyWlLk6GJQsqaUBKTNV-1" source="RpZ9VH3zkLeXyJTN4Uy3-30" target="RpZ9VH3zkLeXyJTN4Uy3-48">
          <mxGeometry relative="1" as="geometry" />
        </mxCell>
        <mxCell id="RpZ9VH3zkLeXyJTN4Uy3-30" value="Dashboard" style="rounded=1;whiteSpace=wrap;html=1;fontSize=12;glass=0;strokeWidth=1;shadow=0;" vertex="1" parent="WIyWlLk6GJQsqaUBKTNV-1">
          <mxGeometry x="-40" y="670" width="120" height="40" as="geometry" />
        </mxCell>
        <mxCell id="RpZ9VH3zkLeXyJTN4Uy3-31" value="" style="rounded=0;html=1;jettySize=auto;orthogonalLoop=1;fontSize=11;endArrow=block;endFill=0;endSize=8;strokeWidth=1;shadow=0;labelBackgroundColor=none;edgeStyle=orthogonalEdgeStyle;exitX=0.25;exitY=1;exitDx=0;exitDy=0;" edge="1" parent="WIyWlLk6GJQsqaUBKTNV-1" source="RpZ9VH3zkLeXyJTN4Uy3-14" target="RpZ9VH3zkLeXyJTN4Uy3-30">
          <mxGeometry x="-0.2083" y="20" relative="1" as="geometry">
            <mxPoint as="offset" />
            <mxPoint x="229.57999999999998" y="570" as="sourcePoint" />
            <mxPoint x="-170" y="680" as="targetPoint" />
          </mxGeometry>
        </mxCell>
        <mxCell id="RpZ9VH3zkLeXyJTN4Uy3-32" value="" style="rounded=0;html=1;jettySize=auto;orthogonalLoop=1;fontSize=11;endArrow=block;endFill=0;endSize=8;strokeWidth=1;shadow=0;labelBackgroundColor=none;edgeStyle=orthogonalEdgeStyle;exitX=0.5;exitY=1;exitDx=0;exitDy=0;" edge="1" parent="WIyWlLk6GJQsqaUBKTNV-1" source="RpZ9VH3zkLeXyJTN4Uy3-14" target="RpZ9VH3zkLeXyJTN4Uy3-25">
          <mxGeometry x="-0.2083" y="20" relative="1" as="geometry">
            <mxPoint as="offset" />
            <mxPoint x="170" y="550" as="sourcePoint" />
            <mxPoint x="30" y="680" as="targetPoint" />
          </mxGeometry>
        </mxCell>
        <mxCell id="RpZ9VH3zkLeXyJTN4Uy3-34" value="" style="rounded=0;html=1;jettySize=auto;orthogonalLoop=1;fontSize=11;endArrow=block;endFill=0;endSize=8;strokeWidth=1;shadow=0;labelBackgroundColor=none;edgeStyle=orthogonalEdgeStyle;exitX=0.75;exitY=1;exitDx=0;exitDy=0;" edge="1" parent="WIyWlLk6GJQsqaUBKTNV-1" source="RpZ9VH3zkLeXyJTN4Uy3-14" target="RpZ9VH3zkLeXyJTN4Uy3-26">
          <mxGeometry x="-0.2083" y="20" relative="1" as="geometry">
            <mxPoint as="offset" />
            <mxPoint x="230" y="570" as="sourcePoint" />
            <mxPoint x="230" y="680" as="targetPoint" />
          </mxGeometry>
        </mxCell>
        <mxCell id="RpZ9VH3zkLeXyJTN4Uy3-35" value="" style="rounded=0;html=1;jettySize=auto;orthogonalLoop=1;fontSize=11;endArrow=block;endFill=0;endSize=8;strokeWidth=1;shadow=0;labelBackgroundColor=none;edgeStyle=orthogonalEdgeStyle;exitX=1;exitY=0.5;exitDx=0;exitDy=0;entryX=0.553;entryY=-0.029;entryDx=0;entryDy=0;entryPerimeter=0;" edge="1" parent="WIyWlLk6GJQsqaUBKTNV-1" source="RpZ9VH3zkLeXyJTN4Uy3-14" target="RpZ9VH3zkLeXyJTN4Uy3-27">
          <mxGeometry x="-0.2083" y="20" relative="1" as="geometry">
            <mxPoint as="offset" />
            <mxPoint x="260" y="570" as="sourcePoint" />
            <mxPoint x="430" y="680" as="targetPoint" />
          </mxGeometry>
        </mxCell>
        <mxCell id="RpZ9VH3zkLeXyJTN4Uy3-70" style="edgeStyle=orthogonalEdgeStyle;rounded=0;orthogonalLoop=1;jettySize=auto;html=1;" edge="1" parent="WIyWlLk6GJQsqaUBKTNV-1" source="RpZ9VH3zkLeXyJTN4Uy3-36" target="RpZ9VH3zkLeXyJTN4Uy3-69">
          <mxGeometry relative="1" as="geometry" />
        </mxCell>
        <mxCell id="RpZ9VH3zkLeXyJTN4Uy3-36" value="Header" style="rounded=1;whiteSpace=wrap;html=1;fontSize=12;glass=0;strokeWidth=1;shadow=0;" vertex="1" parent="WIyWlLk6GJQsqaUBKTNV-1">
          <mxGeometry x="160" y="1070" width="120" height="40" as="geometry" />
        </mxCell>
        <mxCell id="RpZ9VH3zkLeXyJTN4Uy3-40" style="edgeStyle=orthogonalEdgeStyle;rounded=0;orthogonalLoop=1;jettySize=auto;html=1;" edge="1" parent="WIyWlLk6GJQsqaUBKTNV-1" source="RpZ9VH3zkLeXyJTN4Uy3-37" target="RpZ9VH3zkLeXyJTN4Uy3-39">
          <mxGeometry relative="1" as="geometry" />
        </mxCell>
        <mxCell id="RpZ9VH3zkLeXyJTN4Uy3-37" value="Welcome" style="rounded=1;whiteSpace=wrap;html=1;fontSize=12;glass=0;strokeWidth=1;shadow=0;" vertex="1" parent="WIyWlLk6GJQsqaUBKTNV-1">
          <mxGeometry x="-240" y="740" width="120" height="40" as="geometry" />
        </mxCell>
        <mxCell id="RpZ9VH3zkLeXyJTN4Uy3-44" style="edgeStyle=orthogonalEdgeStyle;rounded=0;orthogonalLoop=1;jettySize=auto;html=1;" edge="1" parent="WIyWlLk6GJQsqaUBKTNV-1" source="RpZ9VH3zkLeXyJTN4Uy3-39" target="RpZ9VH3zkLeXyJTN4Uy3-41">
          <mxGeometry relative="1" as="geometry" />
        </mxCell>
        <mxCell id="RpZ9VH3zkLeXyJTN4Uy3-39" value="Summarized Dashboard" style="rounded=1;whiteSpace=wrap;html=1;fontSize=12;glass=0;strokeWidth=1;shadow=0;" vertex="1" parent="WIyWlLk6GJQsqaUBKTNV-1">
          <mxGeometry x="-240" y="810" width="120" height="40" as="geometry" />
        </mxCell>
        <mxCell id="RpZ9VH3zkLeXyJTN4Uy3-47" style="edgeStyle=orthogonalEdgeStyle;rounded=0;orthogonalLoop=1;jettySize=auto;html=1;" edge="1" parent="WIyWlLk6GJQsqaUBKTNV-1" source="RpZ9VH3zkLeXyJTN4Uy3-41" target="RpZ9VH3zkLeXyJTN4Uy3-43">
          <mxGeometry relative="1" as="geometry" />
        </mxCell>
        <mxCell id="RpZ9VH3zkLeXyJTN4Uy3-41" value="Mission / Role" style="rounded=1;whiteSpace=wrap;html=1;fontSize=12;glass=0;strokeWidth=1;shadow=0;" vertex="1" parent="WIyWlLk6GJQsqaUBKTNV-1">
          <mxGeometry x="-240" y="870" width="120" height="40" as="geometry" />
        </mxCell>
        <mxCell id="RpZ9VH3zkLeXyJTN4Uy3-42" value="Yes" style="rounded=0;html=1;jettySize=auto;orthogonalLoop=1;fontSize=11;endArrow=block;endFill=0;endSize=8;strokeWidth=1;shadow=0;labelBackgroundColor=none;edgeStyle=orthogonalEdgeStyle;" edge="1" parent="WIyWlLk6GJQsqaUBKTNV-1">
          <mxGeometry x="-0.2083" y="20" relative="1" as="geometry">
            <mxPoint as="offset" />
            <mxPoint x="220" y="220.04" as="sourcePoint" />
            <mxPoint x="220" y="270.04" as="targetPoint" />
          </mxGeometry>
        </mxCell>
        <mxCell id="RpZ9VH3zkLeXyJTN4Uy3-66" style="edgeStyle=orthogonalEdgeStyle;rounded=0;orthogonalLoop=1;jettySize=auto;html=1;entryX=0;entryY=0.5;entryDx=0;entryDy=0;" edge="1" parent="WIyWlLk6GJQsqaUBKTNV-1" source="RpZ9VH3zkLeXyJTN4Uy3-43" target="RpZ9VH3zkLeXyJTN4Uy3-36">
          <mxGeometry relative="1" as="geometry">
            <Array as="points">
              <mxPoint x="-180" y="1090" />
            </Array>
          </mxGeometry>
        </mxCell>
        <mxCell id="RpZ9VH3zkLeXyJTN4Uy3-43" value="Features" style="rounded=1;whiteSpace=wrap;html=1;fontSize=12;glass=0;strokeWidth=1;shadow=0;" vertex="1" parent="WIyWlLk6GJQsqaUBKTNV-1">
          <mxGeometry x="-240" y="940" width="120" height="40" as="geometry" />
        </mxCell>
        <mxCell id="RpZ9VH3zkLeXyJTN4Uy3-65" style="edgeStyle=orthogonalEdgeStyle;rounded=0;orthogonalLoop=1;jettySize=auto;html=1;entryX=0;entryY=0.25;entryDx=0;entryDy=0;" edge="1" parent="WIyWlLk6GJQsqaUBKTNV-1" source="RpZ9VH3zkLeXyJTN4Uy3-48" target="RpZ9VH3zkLeXyJTN4Uy3-36">
          <mxGeometry relative="1" as="geometry" />
        </mxCell>
        <mxCell id="RpZ9VH3zkLeXyJTN4Uy3-48" value="View Dashboard Information" style="rounded=1;whiteSpace=wrap;html=1;fontSize=12;glass=0;strokeWidth=1;shadow=0;" vertex="1" parent="WIyWlLk6GJQsqaUBKTNV-1">
          <mxGeometry x="-40" y="740" width="120" height="40" as="geometry" />
        </mxCell>
        <mxCell id="RpZ9VH3zkLeXyJTN4Uy3-53" style="edgeStyle=orthogonalEdgeStyle;rounded=0;orthogonalLoop=1;jettySize=auto;html=1;" edge="1" parent="WIyWlLk6GJQsqaUBKTNV-1" source="RpZ9VH3zkLeXyJTN4Uy3-50" target="RpZ9VH3zkLeXyJTN4Uy3-52">
          <mxGeometry relative="1" as="geometry" />
        </mxCell>
        <mxCell id="RpZ9VH3zkLeXyJTN4Uy3-50" value="View Clients" style="rounded=1;whiteSpace=wrap;html=1;fontSize=12;glass=0;strokeWidth=1;shadow=0;" vertex="1" parent="WIyWlLk6GJQsqaUBKTNV-1">
          <mxGeometry x="160" y="740" width="120" height="40" as="geometry" />
        </mxCell>
        <mxCell id="RpZ9VH3zkLeXyJTN4Uy3-52" value="Chat w/ Clients" style="rounded=1;whiteSpace=wrap;html=1;fontSize=12;glass=0;strokeWidth=1;shadow=0;" vertex="1" parent="WIyWlLk6GJQsqaUBKTNV-1">
          <mxGeometry x="160" y="810" width="120" height="40" as="geometry" />
        </mxCell>
        <mxCell id="RpZ9VH3zkLeXyJTN4Uy3-64" style="edgeStyle=orthogonalEdgeStyle;rounded=0;orthogonalLoop=1;jettySize=auto;html=1;" edge="1" parent="WIyWlLk6GJQsqaUBKTNV-1" source="RpZ9VH3zkLeXyJTN4Uy3-54" target="RpZ9VH3zkLeXyJTN4Uy3-56">
          <mxGeometry relative="1" as="geometry" />
        </mxCell>
        <mxCell id="RpZ9VH3zkLeXyJTN4Uy3-54" value="View Requests" style="rounded=1;whiteSpace=wrap;html=1;fontSize=12;glass=0;strokeWidth=1;shadow=0;" vertex="1" parent="WIyWlLk6GJQsqaUBKTNV-1">
          <mxGeometry x="360" y="740" width="120" height="40" as="geometry" />
        </mxCell>
        <mxCell id="RpZ9VH3zkLeXyJTN4Uy3-67" style="edgeStyle=orthogonalEdgeStyle;rounded=0;orthogonalLoop=1;jettySize=auto;html=1;entryX=1;entryY=0.25;entryDx=0;entryDy=0;" edge="1" parent="WIyWlLk6GJQsqaUBKTNV-1" source="RpZ9VH3zkLeXyJTN4Uy3-56" target="RpZ9VH3zkLeXyJTN4Uy3-36">
          <mxGeometry relative="1" as="geometry" />
        </mxCell>
        <mxCell id="RpZ9VH3zkLeXyJTN4Uy3-56" value="Accept / Decline Requests" style="rounded=1;whiteSpace=wrap;html=1;fontSize=12;glass=0;strokeWidth=1;shadow=0;" vertex="1" parent="WIyWlLk6GJQsqaUBKTNV-1">
          <mxGeometry x="360" y="810" width="120" height="40" as="geometry" />
        </mxCell>
        <mxCell id="RpZ9VH3zkLeXyJTN4Uy3-59" style="edgeStyle=orthogonalEdgeStyle;rounded=0;orthogonalLoop=1;jettySize=auto;html=1;entryX=0.5;entryY=0;entryDx=0;entryDy=0;" edge="1" parent="WIyWlLk6GJQsqaUBKTNV-1" source="RpZ9VH3zkLeXyJTN4Uy3-52" target="RpZ9VH3zkLeXyJTN4Uy3-36">
          <mxGeometry relative="1" as="geometry" />
        </mxCell>
        <mxCell id="RpZ9VH3zkLeXyJTN4Uy3-63" style="edgeStyle=orthogonalEdgeStyle;rounded=0;orthogonalLoop=1;jettySize=auto;html=1;" edge="1" parent="WIyWlLk6GJQsqaUBKTNV-1" source="RpZ9VH3zkLeXyJTN4Uy3-60" target="RpZ9VH3zkLeXyJTN4Uy3-61">
          <mxGeometry relative="1" as="geometry" />
        </mxCell>
        <mxCell id="RpZ9VH3zkLeXyJTN4Uy3-60" value="View Profile" style="rounded=1;whiteSpace=wrap;html=1;fontSize=12;glass=0;strokeWidth=1;shadow=0;" vertex="1" parent="WIyWlLk6GJQsqaUBKTNV-1">
          <mxGeometry x="560" y="740" width="120" height="40" as="geometry" />
        </mxCell>
        <mxCell id="RpZ9VH3zkLeXyJTN4Uy3-68" style="edgeStyle=orthogonalEdgeStyle;rounded=0;orthogonalLoop=1;jettySize=auto;html=1;entryX=1;entryY=0.5;entryDx=0;entryDy=0;exitX=0.5;exitY=1;exitDx=0;exitDy=0;" edge="1" parent="WIyWlLk6GJQsqaUBKTNV-1" source="RpZ9VH3zkLeXyJTN4Uy3-61" target="RpZ9VH3zkLeXyJTN4Uy3-36">
          <mxGeometry relative="1" as="geometry" />
        </mxCell>
        <mxCell id="RpZ9VH3zkLeXyJTN4Uy3-61" value="Personal information" style="rounded=1;whiteSpace=wrap;html=1;fontSize=12;glass=0;strokeWidth=1;shadow=0;" vertex="1" parent="WIyWlLk6GJQsqaUBKTNV-1">
          <mxGeometry x="560" y="810" width="120" height="40" as="geometry" />
        </mxCell>
        <mxCell id="RpZ9VH3zkLeXyJTN4Uy3-72" style="edgeStyle=orthogonalEdgeStyle;rounded=0;orthogonalLoop=1;jettySize=auto;html=1;entryX=0.5;entryY=0;entryDx=0;entryDy=0;" edge="1" parent="WIyWlLk6GJQsqaUBKTNV-1" source="RpZ9VH3zkLeXyJTN4Uy3-69" target="RpZ9VH3zkLeXyJTN4Uy3-71">
          <mxGeometry relative="1" as="geometry" />
        </mxCell>
        <mxCell id="RpZ9VH3zkLeXyJTN4Uy3-69" value="Logout" style="rounded=1;whiteSpace=wrap;html=1;fontSize=12;glass=0;strokeWidth=1;shadow=0;" vertex="1" parent="WIyWlLk6GJQsqaUBKTNV-1">
          <mxGeometry x="160" y="1180" width="120" height="40" as="geometry" />
        </mxCell>
        <mxCell id="RpZ9VH3zkLeXyJTN4Uy3-71" value="End" style="ellipse;whiteSpace=wrap;html=1;" vertex="1" parent="WIyWlLk6GJQsqaUBKTNV-1">
          <mxGeometry x="185" y="1250" width="70" height="30" as="geometry" />
        </mxCell>
      </root>
    </mxGraphModel>
  </diagram>
</mxfile>
